# xmcd
#
# Track frame offsets:
#	150
#	12743
#	29070
#	43818
#	57405
#	68983
#	83150
#	97230
#	108370
#	120613
#	133180
#	150290
#	164048
#	176915
#	190340
#	201390
#
# Disc length: 2953 seconds
#
# Revision: 2
# Processed by: cddbd v1.5.2PL0 Copyright (c) Steve Scherf et al.
# Submitted via: EasyCDDAExtractor 2010.6.0.0
#
DISCID=f50b8710
DTITLE=Thomas, B.J. - Raindrops keep faling on my head [1992]
DYEAR=1900
DGENRE=CountryPop
TTITLE0=Raindrops keep faling on my head
TTITLE1=Hey won't you play
TTITLE2=I'm so lonesome i could cry
TTITLE3=I just can't help believing
TTITLE4=No love at all
TTITLE5=Don't worry baby
TTITLE6=Old fashioned love
TTITLE7=Mama
TTITLE8=Hooked on a feeling
TTITLE9=The eyes of a new york woman
TTITLE10=Amazing grace
TTITLE11=Home where i belong
TTITLE12=Highty clouds of joy
TTITLE13=Billy and Sue
TTITLE14=America the beautiful
TTITLE15=Rock 'n' roll lullaby
EXTD=
EXTT0=
EXTT1=
EXTT2=
EXTT3=
EXTT4=
EXTT5=
EXTT6=
EXTT7=
EXTT8=
EXTT9=
EXTT10=
EXTT11=
EXTT12=
EXTT13=
EXTT14=
EXTT15=
PLAYORDER=
